<?xml version="1.0" encoding="utf-8"?>
<!-- Generator: Adobe Illustrator 24.2.1, SVG Export Plug-In . SVG Version: 6.00 Build 0)  -->
<svg version="1.1" id="Camada_1" xmlns="http://www.w3.org/2000/svg" xmlns:xlink="http://www.w3.org/1999/xlink" x="0px" y="0px"
	 viewBox="0 0 595.28 841.89" style="enable-background:new 0 0 595.28 841.89;" xml:space="preserve">
<style type="text/css">
	.st0{fill-rule:evenodd;clip-rule:evenodd;}
	.st1{fill-rule:evenodd;clip-rule:evenodd;fill:#008242;}
</style>
<polygon class="st0" points="153.73,562.97 153.73,639.55 137.26,639.55 137.26,562.97 116.74,562.97 116.74,550.69 174.26,550.69 
	174.26,562.97 "/>
<path class="st0" d="M198.94,589.89c-9.96,0-13.15,5.78-13.15,15v34.66h-15.24v-50.76c0-0.74-0.25-10.44-0.25-11.19h14.63l0.12,7.99
	c3.45-6.76,8.36-9.09,15.73-9.09c0.13,0,0.62,0,0.74,0v13.64C200.66,590.01,199.8,589.89,198.94,589.89"/>
<path class="st0" d="M235.41,593.34c-0.61-4.19-2.21-7.26-6.88-7.26c-4.91,0-6.88,3.2-7.62,8.11c-0.37,2.46-0.49,4.67-0.49,7.62
	h15.37C235.78,598.99,235.9,596.29,235.41,593.34 M220.41,610.3v5.54c0,10.56,1.97,15.24,7.86,15.24c6.52,0,7.62-6.27,7.62-12.05
	c4.06,0,11.8,0,14.5,0c-0.61,15.24-7.13,22-22.13,22c-21.63,0-22.98-14.51-22.98-31.84c0-16.96,2.58-33.06,23.85-33.06
	c21.64,0,21.64,16.22,21.64,34.17H220.41z"/>
<path class="st0" d="M289.36,593.34c-0.61-4.19-2.21-7.26-6.88-7.26c-4.91,0-6.88,3.2-7.62,8.11c-0.38,2.46-0.5,4.67-0.5,7.62h15.37
	C289.73,598.99,289.85,596.29,289.36,593.34 M274.36,610.3v5.54c0,10.56,1.97,15.24,7.87,15.24c6.51,0,7.62-6.27,7.62-12.05
	c4.05,0,11.8,0,14.5,0c-0.62,15.24-7.13,22-22.12,22c-21.63,0-22.99-14.51-22.99-31.84c0-16.96,2.59-33.06,23.85-33.06
	c21.63,0,21.63,16.22,21.63,34.17H274.36z"/>
<path class="st0" d="M335.07,640.29c-13.15,0-17.21-3.81-17.21-16.96v-35.76h-8.24v-9.96h8.24v-10.57l15.24-6.26v16.84h9.7v9.96
	h-9.7v33.55c0,5.66,0.74,8.48,6.39,8.48c1.35,0,2.71-0.24,4.18-0.37v10.44C340.84,640.16,338.02,640.29,335.07,640.29"/>
<path class="st0" d="M379.31,593.34c-0.62-4.19-2.21-7.26-6.88-7.26c-4.92,0-6.88,3.2-7.62,8.11c-0.37,2.46-0.49,4.67-0.49,7.62
	h15.36C379.68,598.99,379.8,596.29,379.31,593.34 M364.31,610.3v5.54c0,10.56,1.97,15.24,7.87,15.24c6.51,0,7.62-6.27,7.62-12.05
	c4.06,0,11.8,0,14.5,0c-0.61,15.24-7.13,22-22.12,22c-21.64,0-22.99-14.51-22.99-31.84c0-16.96,2.59-33.06,23.85-33.06
	c21.63,0,21.63,16.22,21.63,34.17H364.31z"/>
<path class="st0" d="M426.86,641.03c-20.64,0-23.72-11.8-23.72-29.75c0-19.3,2.21-35.15,24.09-35.15c16.35,0,22.13,6.15,22.13,22.5
	h-14.51c0-5.66-0.24-12.55-7.62-12.55c-9.71,0-8.85,12.42-8.85,22c0,10.94-0.86,22.99,8.48,22.99c7.62,0,8.36-7.38,8.36-13.4h14.51
	C449.61,627.87,448,641.03,426.86,641.03"/>
<path class="st0" d="M489.66,639.55v-41.42c0-6.88-0.49-12.05-7.13-12.05c-6.15,0-8.48,7.26-8.48,13.53v39.94H458.8v-88.86h15.24
	v33.43c3.69-5.17,8.61-7.99,15.24-7.99c11.8,0,15.61,6.52,15.61,18.93v44.49H489.66z"/>
<path class="st1" d="M274.33,267.88c-14.1,0-25.5,11.44-25.5,25.52c0,14.09,11.41,25.51,25.5,25.51c14.09,0,25.52-11.43,25.52-25.51
	C299.85,279.32,288.42,267.88,274.33,267.88"/>
<path class="st1" d="M211.22,304.32c-14.09,0-25.51,11.41-25.51,25.52c0,14.09,11.42,25.48,25.51,25.48
	c14.08,0,25.52-11.4,25.52-25.48C236.73,315.74,225.3,304.32,211.22,304.32"/>
<path class="st1" d="M337.45,355.33c14.08,0,25.5-11.4,25.5-25.48c0-14.11-11.42-25.52-25.5-25.52c-14.09,0-25.52,11.41-25.52,25.52
	C311.93,343.93,323.36,355.33,337.45,355.33"/>
<path class="st1" d="M337.45,377.19c-14.09,0-25.52,11.43-25.52,25.54c0,14.08,11.43,25.49,25.52,25.49
	c14.08,0,25.5-11.41,25.5-25.49C362.95,388.63,351.53,377.19,337.45,377.19"/>
<path class="st1" d="M211.22,377.19c-14.09,0-25.51,11.43-25.51,25.54c0,14.08,11.42,25.49,25.51,25.49
	c14.08,0,25.52-11.41,25.52-25.49C236.73,388.63,225.3,377.19,211.22,377.19"/>
<path class="st1" d="M274.33,413.63c-14.09,0-25.5,11.43-25.5,25.51v51.01c0,14.08,11.41,25.5,25.5,25.5
	c14.08,0,25.52-11.42,25.52-25.5v-51.01C299.85,425.06,288.41,413.63,274.33,413.63"/>
</svg>
